<?xml version="1.0" encoding="UTF-8" standalone="no"?>
<svg version="1.1" width="767.99988pt" height="767.99988pt" id="svg35" viewBox="0 0 767.99988 767.99988"
  sodipodi:docname="SADIM定稿.cdr" xmlns:inkscape="http://www.inkscape.org/namespaces/inkscape"
  xmlns:sodipodi="http://sodipodi.sourceforge.net/DTD/sodipodi-0.dtd" xmlns="http://www.w3.org/2000/svg"
  xmlns:svg="http://www.w3.org/2000/svg">
  <defs id="defs39" />
  <sodipodi:namedview id="namedview37" pagecolor="#ffffff" bordercolor="#000000" borderopacity="0.25"
    inkscape:showpageshadow="2" inkscape:pageopacity="0.0" inkscape:pagecheckerboard="0" inkscape:deskcolor="#d1d1d1"
    inkscape:document-units="pt" />
  <path d="M 1e-4,1e-4 V 768 H 768 V 1e-4 Z" style="fill:none" id="path2" />
  <g id="Layer1000">
    <g id="Layer1001">
      <path d="M 379.1079,334.6946 H 487.578 V 443.1647 H 379.1079 Z" style="fill:transparent;fill-rule:evenodd"
        id="path4" />
      <path d="m 211.6825,227.9789 h 131.9976 v 262.842 H 211.6825 Z" style="fill:transparent;fill-rule:evenodd"
        id="path6" />
      <path
        d="m 165.0674,200.344 h 146.9199 c 1.4368,0 2.6029,1.1661 2.6029,2.6029 v 99.5995 h -5.2058 V 205.5498 H 167.6703 V 507.9531 H 309.3844 V 346.1629 h 5.2058 V 510.556 c 0,1.4368 -1.1661,2.6029 -2.6029,2.6029 H 165.0674 c -1.4368,0 -2.6029,-1.1661 -2.6029,-2.6029 V 202.9469 c 0,-1.4368 1.1661,-2.6029 2.6029,-2.6029 z"
        style="fill:#6e6f70;fill-rule:evenodd" id="path8" />
      <path
        d="m 363.6364,361.0358 h 181.3561 c 1.4368,0 2.6029,1.1661 2.6029,2.6029 v 137.4324 c 0,1.4368 -1.1661,2.6029 -2.6029,2.6029 H 363.6364 c -1.4368,0 -2.6029,-1.1661 -2.6029,-2.6029 v -57.9142 h 5.2058 v 55.3113 H 542.3896 V 366.2416 H 366.2393 v 56.2562 h -5.2058 v -58.8591 c 0,-1.4368 1.1661,-2.6029 2.6029,-2.6029 z"
        style="fill:#6e6f70;fill-rule:evenodd" id="path10" />
      <path d="M 161.9309,96.9314 609.0001,401.6695 606.0692,405.959 159.0001,101.2209 Z"
        style="fill:#6e6f70;fill-rule:evenodd" id="path12" />
      <path
        d="m 355.1536,381.1249 h 41.1855 c 1.4367,0 2.6028,1.1661 2.6028,2.6029 v 92.733 c 0,1.4368 -1.1661,2.6029 -2.6028,2.6029 H 289.0455 c -1.4368,0 -2.6029,-1.1661 -2.6029,-2.6029 v -92.733 c 0,-1.4368 1.1661,-2.6029 2.6029,-2.6029 z m 38.5826,5.2058 H 291.6484 v 87.5272 h 102.0878 z"
        style="fill:#6e6f70;fill-rule:evenodd" id="path14" />
      <path
        d="m 268.0402,270.9291 h 149.3041 c 1.4368,0 2.6029,1.1661 2.6029,2.6029 v 109.6153 c 0,1.4368 -1.1661,2.6029 -2.6029,2.6029 H 268.0402 c -1.4368,0 -2.6029,-1.1661 -2.6029,-2.6029 V 273.532 c 0,-1.4368 1.1661,-2.6029 2.6029,-2.6029 z m 146.7013,5.2058 H 270.6431 v 104.4096 h 144.0984 z"
        style="fill:#6e6f70;fill-rule:evenodd" id="path16" />
    </g>
  </g>
</svg>