<?xml version="1.0" encoding="UTF-8" standalone="no"?>
<svg version="1.1" width="767.99988pt" height="767.99988pt" id="svg35" viewBox="0 0 767.99988 767.99988"
  sodipodi:docname="SADIM定稿.cdr" xmlns:inkscape="http://www.inkscape.org/namespaces/inkscape"
  xmlns:sodipodi="http://sodipodi.sourceforge.net/DTD/sodipodi-0.dtd" xmlns="http://www.w3.org/2000/svg"
  xmlns:svg="http://www.w3.org/2000/svg">
  <defs id="defs39" />
  <sodipodi:namedview id="namedview37" pagecolor="#ffffff" bordercolor="#000000" borderopacity="0.25"
    inkscape:showpageshadow="2" inkscape:pageopacity="0.0" inkscape:pagecheckerboard="0" inkscape:deskcolor="#d1d1d1"
    inkscape:document-units="pt" />
  <path d="M 1e-4,1e-4 V 768 H 768 V 1e-4 Z" style="fill:none" id="path2" />
  <g id="Layer1000">
    <g id="Layer1001">
      <path d="M 379.1079,334.6946 H 487.578 V 443.1647 H 379.1079 Z" style="fill:transparent;fill-rule:evenodd"
        id="path4" />
      <path d="m 211.6825,227.9789 h 131.9976 v 262.842 H 211.6825 Z" style="fill:transparent;fill-rule:evenodd"
        id="path6" />
      <path
        d="m 165.0674,200.344 h 146.9199 c 1.4368,0 2.6029,1.1661 2.6029,2.6029 v 99.5995 h -5.2058 V 205.5498 H 167.6703 V 507.9531 H 309.3844 V 346.1629 h 5.2058 V 510.556 c 0,1.4368 -1.1661,2.6029 -2.6029,2.6029 H 165.0674 c -1.4368,0 -2.6029,-1.1661 -2.6029,-2.6029 V 202.9469 c 0,-1.4368 1.1661,-2.6029 2.6029,-2.6029 z"
        style="fill:#6e6f70;fill-rule:evenodd" id="path8" />
      <path
        d="m 363.6364,361.0358 h 181.3561 c 1.4368,0 2.6029,1.1661 2.6029,2.6029 v 137.4324 c 0,1.4368 -1.1661,2.6029 -2.6029,2.6029 H 363.6364 c -1.4368,0 -2.6029,-1.1661 -2.6029,-2.6029 v -57.9142 h 5.2058 v 55.3113 H 542.3896 V 366.2416 H 366.2393 v 56.2562 h -5.2058 v -58.8591 c 0,-1.4368 1.1661,-2.6029 2.6029,-2.6029 z"
        style="fill:#6e6f70;fill-rule:evenodd" id="path10" />
      <path d="M 161.9309,96.9314 609.0001,401.6695 606.0692,405.959 159.0001,101.2209 Z"
        style="fill:#6e6f70;fill-rule:evenodd" id="path12" />
      <path
        d="m 355.1536,381.1249 h 41.1855 c 1.4367,0 2.6028,1.1661 2.6028,2.6029 v 92.733 c 0,1.4368 -1.1661,2.6029 -2.6028,2.6029 H 289.0455 c -1.4368,0 -2.6029,-1.1661 -2.6029,-2.6029 v -92.733 c 0,-1.4368 1.1661,-2.6029 2.6029,-2.6029 z m 38.5826,5.2058 H 291.6484 v 87.5272 h 102.0878 z"
        style="fill:#6e6f70;fill-rule:evenodd" id="path14" />
      <path
        d="m 268.0402,270.9291 h 149.3041 c 1.4368,0 2.6029,1.1661 2.6029,2.6029 v 109.6153 c 0,1.4368 -1.1661,2.6029 -2.6029,2.6029 H 268.0402 c -1.4368,0 -2.6029,-1.1661 -2.6029,-2.6029 V 273.532 c 0,-1.4368 1.1661,-2.6029 2.6029,-2.6029 z m 146.7013,5.2058 H 270.6431 v 104.4096 h 144.0984 z"
        style="fill:#6e6f70;fill-rule:evenodd" id="path16" />
    </g>
    <g id="Layer1002">
      <path
        d="m 226.2925,645.284 c 0,-13.8317 -2.0146,-21.3515 -12.3533,-25.5161 l -10.2059,-4.162 c -8.7301,-3.6258 -10.3413,-6.8482 -10.3413,-17.861 0,-5.9086 1.2077,-10.7421 4.1646,-13.6964 1.8793,-1.8793 4.5655,-3.0896 8.3241,-3.0896 4.0292,0 6.8481,1.3431 8.73,3.493 2.819,3.2224 3.6259,7.1163 3.6259,13.1602 h 7.9231 c 0,-8.3266 -1.075,-13.8317 -5.7758,-18.5325 -3.3577,-3.3577 -8.1912,-5.237 -14.3679,-5.237 -5.9085,0 -10.474,1.7465 -13.9671,5.1016 -4.4301,4.1647 -6.5801,10.7448 -6.5801,18.936 0,14.368 2.8215,19.8757 12.624,23.9023 l 10.2059,4.1647 c 8.1913,3.3551 10.0706,7.6524 10.0706,19.6049 0,7.5197 -0.6715,11.6843 -3.7586,15.0395 -1.8819,2.0146 -4.7008,3.2249 -9.1335,3.2249 -4.0267,0 -6.9809,-1.2103 -8.9956,-3.2249 -2.9542,-2.9543 -3.7611,-6.8482 -3.7611,-14.2326 h -7.9232 c 0,10.474 1.3431,15.1748 5.6404,19.6049 3.4931,3.4905 8.5948,5.1043 15.0395,5.1043 6.8508,0 11.6844,-1.8819 14.9067,-5.1043 4.2974,-4.2973 5.9086,-10.6093 5.9086,-20.6799 z"
        style="fill:#6e6f70;fill-rule:evenodd" id="path19" />
      <path
        d="m 320.4207,670.2613 -20.9481,-95.6144 h -7.387 l -21.3514,95.6144 h 8.5947 l 5.1043,-26.185 h 22.2911 l 5.237,26.185 z m -15.1723,-33.3039 h -19.2041 l 9.5344,-48.0753 z"
        style="fill:#6e6f70;fill-rule:evenodd" id="path21" />
      <path
        d="m 408.6429,622.4541 c 0,-28.8712 -0.6715,-35.9875 -6.7155,-42.2995 -3.2223,-3.3577 -7.9231,-5.5077 -14.2351,-5.5077 h -19.605 v 95.6144 h 19.605 c 6.312,0 11.0128,-2.1474 14.2351,-5.5051 6.044,-6.312 6.7155,-13.4283 6.7155,-42.3021 z m -7.9232,0 c 0,27.3954 -0.5388,32.7677 -4.7008,37.3332 -1.8793,2.0146 -4.9689,3.3577 -8.7275,3.3577 h -11.2809 v -81.3792 h 11.2809 c 3.7586,0 6.8482,1.3431 8.7275,3.3577 4.162,4.5655 4.7008,9.9352 4.7008,37.3306 z"
        style="fill:#6e6f70;fill-rule:evenodd" id="path23" />
      <path d="m 470.6775,670.2613 v -95.6144 h -7.9232 v 95.6144 z" style="fill:#6e6f70;fill-rule:evenodd"
        id="path25" />
      <path
        d="m 583.2055,670.2613 v -95.6144 h -7.9232 l -20.2765,56.2692 -20.1437,-56.2692 h -7.9232 v 95.6144 h 7.9232 V 594.926 l 17.1894,48.8796 h 5.7732 l 17.4576,-50.4908 v 76.9465 z"
        style="fill:#6e6f70;fill-rule:evenodd" id="path27" />
      <path d="m 477.1378,574.6469 h -20.8439 v 7.9232 h 20.8439 z" style="fill:#6e6f70;fill-rule:evenodd"
        id="path29" />
      <path d="m 477.1378,662.3381 h -20.8439 v 7.9232 h 20.8439 z" style="fill:#6e6f70;fill-rule:evenodd"
        id="path31" />
    </g>
  </g>
</svg>