<?xml version="1.0" encoding="UTF-8" standalone="no"?>
<svg version="1.1" width="768pt" height="768pt" viewBox="0 0 768 768" color="#D1D5DB"
  xmlns="http://www.w3.org/2000/svg">
  <style>
    :root {
      color: #D1D5DB;
    }

    path {
      stroke: currentColor;
      stroke-width: 2;
      stroke-linejoin: round;
      stroke-linecap: round;
    }
  </style>
  <g>
    <g>
      <path
        d="m 165.0674,200.344 h 146.9199 c 1.4368,0 2.6029,1.1661 2.6029,2.6029 v 99.5995 h -5.2058 V 205.5498 H 167.6703 V 507.9531 H 309.3844 V 346.1629 h 5.2058 V 510.556 c 0,1.4368 -1.1661,2.6029 -2.6029,2.6029 H 165.0674 c -1.4368,0 -2.6029,-1.1661 -2.6029,-2.6029 V 202.9469 c 0,-1.4368 1.1661,-2.6029 2.6029,-2.6029 z"
        style="fill:currentColor;fill-rule:evenodd" id="path8" />
      <path
        d="m 363.6364,361.0358 h 181.3561 c 1.4368,0 2.6029,1.1661 2.6029,2.6029 v 137.4324 c 0,1.4368 -1.1661,2.6029 -2.6029,2.6029 H 363.6364 c -1.4368,0 -2.6029,-1.1661 -2.6029,-2.6029 v -57.9142 h 5.2058 v 55.3113 H 542.3896 V 366.2416 H 366.2393 v 56.2562 h -5.2058 v -58.8591 c 0,-1.4368 1.1661,-2.6029 2.6029,-2.6029 z"
        style="fill:currentColor;fill-rule:evenodd" id="path10" />
      <path d="M 161.9309,96.9314 609.0001,401.6695 606.0692,405.959 159.0001,101.2209 Z"
        style="fill:currentColor;fill-rule:evenodd" id="path12" />
      <path
        d="m 355.1536,381.1249 h 41.1855 c 1.4367,0 2.6028,1.1661 2.6028,2.6029 v 92.733 c 0,1.4368 -1.1661,2.6029 -2.6028,2.6029 H 289.0455 c -1.4368,0 -2.6029,-1.1661 -2.6029,-2.6029 v -92.733 c 0,-1.4368 1.1661,-2.6029 2.6029,-2.6029 z m 38.5826,5.2058 H 291.6484 v 87.5272 h 102.0878 z"
        style="fill:currentColor;fill-rule:evenodd" id="path14" />
      <path
        d="m 268.0402,270.9291 h 149.3041 c 1.4368,0 2.6029,1.1661 2.6029,2.6029 v 109.6153 c 0,1.4368 -1.1661,2.6029 -2.6029,2.6029 H 268.0402 c -1.4368,0 -2.6029,-1.1661 -2.6029,-2.6029 V 273.532 c 0,-1.4368 1.1661,-2.6029 2.6029,-2.6029 z m 146.7013,5.2058 H 270.6431 v 104.4096 h 144.0984 z"
        style="fill:currentColor;fill-rule:evenodd" id="path16" />
    </g>
  </g>
</svg>